<svg width="40" height="34" viewBox="0 0 40 34" fill="none" xmlns="http://www.w3.org/2000/svg">

<path d="M5 7.23078H35M5 8.38462H35M9.61538 16.4615H18.8462M9.61538 19.9231H14.2308M8.46154 24.5385H31.5385C32.4565 24.5385 33.337 24.1738 33.9861 23.5246C34.6353 22.8754 35 21.995 35 21.0769V4.92309C35 4.00503 34.6353 3.12457 33.9861 2.47541C33.337 1.82624 32.4565 1.46155 31.5385 1.46155H8.46154C7.54348 1.46155 6.66303 1.82624 6.01386 2.47541C5.3647 3.12457 5 4.00503 5 4.92309V21.0769C5 21.995 5.3647 22.8754 6.01386 23.5246C6.66303 24.1738 7.54348 24.5385 8.46154 24.5385Z" stroke="#518490" stroke-width="2" stroke-linecap="round" stroke-linejoin="round" shape-rendering="crispEdges"/>
</g>

</svg>
