<svg width="40" height="40" viewBox="0 0 40 40" fill="none" xmlns="http://www.w3.org/2000/svg">
<path d="M15 24.75V26.4283C15.0001 27.0852 14.8707 27.7356 14.6194 28.3424C14.368 28.9493 13.9995 29.5006 13.535 29.965L12.5 31H27.5L26.465 29.965C26.0005 29.5006 25.632 28.9493 25.3806 28.3424C25.1293 27.7356 24.9999 27.0852 25 26.4283V24.75M35 4.75V21C35 21.9946 34.6049 22.9484 33.9016 23.6516C33.1984 24.3549 32.2446 24.75 31.25 24.75H8.75C7.75544 24.75 6.80161 24.3549 6.09835 23.6516C5.39509 22.9484 5 21.9946 5 21V4.75M35 4.75C35 3.75544 34.6049 2.80161 33.9016 2.09835C33.1984 1.39509 32.2446 1 31.25 1H8.75C7.75544 1 6.80161 1.39509 6.09835 2.09835C5.39509 2.80161 5 3.75544 5 4.75M35 4.75V16C35 16.9946 34.6049 17.9484 33.9016 18.6516C33.1984 19.3549 32.2446 19.75 31.25 19.75H8.75C7.75544 19.75 6.80161 19.3549 6.09835 18.6516C5.39509 17.9484 5 16.9946 5 16V4.75" stroke="#518490" stroke-width="2" stroke-linecap="round" stroke-linejoin="round" shape-rendering="crispEdges"/>
</svg>
